PathFileType        4      (X/Y/Z)      C:\Users\pc\Desktop\IMUTRC\Sujet_04\Sujet_04_Tpose.trc         
DataRate	CameraRate	NumFrames	NumMarkers	Units	OrigDataRate	OrigDataStartFrame	OrigNumFrames
60.0	60.0	4	64	mm	60.0	38	149
Frame#	Time	pHipOrigin			pRightASI			pLeftASI			pRightCSI			pLeftCSI			pRightIschialTub			pLeftIschialTub			pSacrum			pL5SpinalProcess			pL3SpinalProcess			pT12SpinalProcess			pIJ			pT4SpinalProcess			pT8SpinalProcess			pPX			pC7SpinalProcess			pTopOfHead			pRightAuricularis			pLeftAuricularis			pBackOfHead			pRightAcromion			pLeftAcromion			pRightArmLatEpicondyle			pRightArmMedEpicondyle			pLeftArmLatEpicondyle			pLeftArmMedEpicondyle			pRightUlnarStyloid			pRightRadialStyloid			pRightOlecranon			pLeftUlnarStyloid			pLeftRadialStyloid			pLeftOlecranon			pRightTopOfHand			pRightPinky			pRightBallHand			pLeftTopOfHand			pLeftPinky			pLeftBallHand			pRightGreaterTrochanter			pRightKneeLatEpicondyle			pRightKneeMedEpicondyle			pRightPatella			pLeftGreaterTrochanter			pLeftKneeLatEpicondyle			pLeftKneeMedEpicondyle			pLeftPatella			pRightTibialTub			pRightLatMalleolus			pRightMedMalleolus			pLeftTibialTub			pLeftLatMalleolus			pLeftMedMalleolus			pRightHeelFoot			pRightFirstMetatarsal			pRightFifthMetatarsal			pRightPivotFoot			pRightHeelCenter			pRightToe			pLeftHeelFoot			pLeftFirstMetatarsal			pLeftFifthMetatarsal			pLeftPivotFoot			pLeftHeelCenter			pLeftToe			
		X1	Y1	Z1	X2	Y2	Z2	X3	Y3	Z3	X4	Y4	Z4	X5	Y5	Z5	X6	Y6	Z6	X7	Y7	Z7	X8	Y8	Z8	X9	Y9	Z9	X10	Y10	Z10	X11	Y11	Z11	X12	Y12	Z12	X13	Y13	Z13	X14	Y14	Z14	X15	Y15	Z15	X16	Y16	Z16	X17	Y17	Z17	X18	Y18	Z18	X19	Y19	Z19	X20	Y20	Z20	X21	Y21	Z21	X22	Y22	Z22	X23	Y23	Z23	X24	Y24	Z24	X25	Y25	Z25	X26	Y26	Z26	X27	Y27	Z27	X28	Y28	Z28	X29	Y29	Z29	X30	Y30	Z30	X31	Y31	Z31	X32	Y32	Z32	X33	Y33	Z33	X34	Y34	Z34	X35	Y35	Z35	X36	Y36	Z36	X37	Y37	Z37	X38	Y38	Z38	X39	Y39	Z39	X40	Y40	Z40	X41	Y41	Z41	X42	Y42	Z42	X43	Y43	Z43	X44	Y44	Z44	X45	Y45	Z45	X46	Y46	Z46	X47	Y47	Z47	X48	Y48	Z48	X49	Y49	Z49	X50	Y50	Z50	X51	Y51	Z51	X52	Y52	Z52	X53	Y53	Z53	X54	Y54	Z54	X55	Y55	Z55	X56	Y56	Z56	X57	Y57	Z57	X58	Y58	Z58	X59	Y59	Z59	X60	Y60	Z60	X61	Y61	Z61	X62	Y62	Z62	X63	Y63	Z63	X64	Y64	Z64	
38	0.617	-41.02696	1006.83637	-744.3793699999999	33.11049	1114.89331	-599.1092499999999	30.56798	1112.00409	-893.0587799999998	-14.79282	1187.12388	-626.0367999999999	-16.87306	1184.75472	-866.6512799999999	-101.00723	946.45162	-683.1278499999999	-102.04735	945.23814	-803.4350899999998	-113.0264	1030.12351	-743.9748799999999	-72.69285	1128.06816	-744.9572199999999	-60.9626	1244.6772	-745.0149999999999	-61.77158	1351.69401	-744.3793699999999	100.77609	1570.40818	-746.9796699999999	-55.18416	1551.68602	-742.4724799999999	-62.75392	1458.65304	-743.3392499999999	95.74884	1442.99345	-748.3087199999999	-48.82787	1607.67916	-740.7389499999999	21.32246	1849.10262	-739.6410499999998	29.70121	1751.85138	-674.8068899999998	9.24551	1756.5897	-810.4270099999999	-33.86169	1755.14509	-734.5560099999999	-27.67875	1590.97945	-554.1529399999998	-43.68505	1571.67944	-937.3794599999999	24.84732	1452.81681	-279.9656899999999	67.14554	1408.55392	-307.2399599999999	40.21798	1471.0767	-1210.69994	97.54016	1446.46052	-1186.19933	78.47129	1373.13205	-43.453909999999915	77.95123	1425.48476	-31.49252999999991	44.43625	1406.58925	-299.4390499999999	121.63628	1416.75931	-1448.13627	101.1228	1464.83598	-1460.38658	76.67997	1435.88597	-1192.32448	113.3731	1397.57487	183.7545700000001	106.90125	1351.80958	89.16142000000009	101.18058	1377.46588	6.876350000000085	213.45578	1452.1234	-1653.09774	197.50727	1410.92308	-1557.58003	153.76444	1432.07219	-1486.21623	-40.27577	975.40163	-568.8301899999999	-83.84525	543.11611	-592.05954	-84.7698	541.15144	-676.19371	-37.21319	540.63138	-637.42034	-38.94672	973.72588	-919.9863399999999	-90.08597	542.0182	-900.0507	-94.76651	539.93796	-816.0321	-45.53415	538.78227	-852.66744	-27.73654	500.58675000000005	-636.49579	-122.6764	95.17100000000005	-591.94398	-123.4276	93.49525000000004	-658.22275	-35.53744	499.95112000000006	-853.12972	-123.13868	93.49525000000006	-903.11327	-126.95245	91.58836000000005	-836.95007	-168.44169	6.009580000000038	-621.12513	4.16048	4.115016720200785E-14	-672.03323	8.95659	1.386830000000036	-587.55236	30.45241	-0.05777999999996128	-632.27753	-125.85455	6.9919200000000385	-623.55207	121.05844	-0.5200599999999609	-637.36256	-168.49948	3.2359300000000535	-866.76685	5.48952	4.27605000000005	-820.53929	7.91647	5.5420040722317406E-14	-905.07795	30.68355	2.0802400000000527	-860.98841	-125.91233	5.316170000000053	-865.61116	121.34736	1.0401200000000526	-858.33032	
39	0.633	-41.08475	1006.83637	-744.4371599999998	33.05271	1114.89331	-599.1670299999998	30.51019	1112.00409	-893.0587799999998	-14.85061	1187.12388	-626.0945899999999	-16.93085	1184.75472	-866.7090699999999	-101.06501	946.45162	-683.1856299999998	-102.10514	945.23814	-803.4928699999999	-113.14197	1030.12351	-744.0326699999999	-72.80842	1128.06816	-745.0149999999999	-61.02039	1244.6772	-745.0727899999999	-61.82937	1351.69401	-744.4371599999998	100.77609	1570.3504	-746.9796699999999	-55.18416	1551.68602	-742.5302699999999	-62.75392	1458.65304	-743.3970399999998	95.74884	1442.93567	-748.3664999999999	-48.77008	1607.67916	-740.7389499999999	21.32246	1849.10262	-739.5832599999999	29.70121	1751.85138	-674.8068899999998	9.3033	1756.5897	-810.4847899999999	-33.80391	1755.08731	-734.5560099999999	-27.56319	1590.97945	-554.1529399999998	-43.68505	1571.73722	-937.3794599999999	24.9051	1452.81681	-280.0234799999999	67.31889	1408.6117	-307.29773999999986	40.21798	1471.13448	-1210.75772	97.54016	1446.46052	-1186.19933	78.76021	1373.18983	-43.51169999999991	78.24015	1425.54255	-31.55030999999991	44.55182	1406.58925	-299.4968399999999	121.86742	1416.87488	-1448.13627	101.35394	1465.00933	-1460.38658	76.67997	1435.88597	-1192.38227	113.66203	1397.69044	183.69679000000008	107.24795	1351.92515	89.10363000000008	101.52729	1377.58145	6.818570000000085	213.86027	1452.47011	-1652.98217	197.85398	1411.15422	-1557.52225	154.05336	1432.30333	-1486.15844	-40.33355	975.40163	-568.8301899999999	-83.84525	543.11611	-592.05954	-84.82758	541.15144	-676.19371	-37.21319	540.63138	-637.42034	-39.00451	973.6681	-920.0441199999999	-90.08597	542.0182	-900.0507	-94.76651	539.93796	-816.0321	-45.59194	538.78227	-852.66744	-27.79432	500.58675000000005	-636.55358	-122.6764	95.17100000000005	-592.00176	-123.4276	93.49525000000004	-658.22275	-35.59523	499.8933400000001	-853.12972	-123.13868	93.49525000000006	-903.11327	-126.95245	91.58836000000005	-836.95007	-168.44169	6.009580000000038	-621.12513	4.16048	4.115016720200785E-14	-672.03323	8.95659	1.386830000000036	-587.55236	30.45241	-0.05777999999996128	-632.27753	-125.85455	6.9919200000000385	-623.55207	121.05844	-0.5200599999999609	-637.36256	-168.49948	3.2359300000000535	-866.76685	5.48952	4.27605000000005	-820.53929	7.91647	5.5420040722317406E-14	-905.07795	30.68355	2.0802400000000527	-860.98841	-125.91233	5.258390000000054	-865.61116	121.34736	1.0979000000000527	-858.33032	
40	0.65	-41.14253	1006.83637	-744.4949399999999	32.93714	1114.89331	-599.1670299999998	30.45241	1112.00409	-893.1165599999999	-14.96617	1187.12388	-626.1523699999999	-16.98863	1184.75472	-866.7668499999999	-101.1228	946.45162	-683.1856299999998	-102.16292	945.23814	-803.4928699999999	-113.19975	1030.12351	-744.0904499999999	-72.8662	1128.06816	-745.0727899999999	-61.07817	1244.6772	-745.1305699999999	-61.82937	1351.69401	-744.4949399999999	100.83388	1570.3504	-747.0374599999999	-55.12637	1551.68602	-742.5302699999999	-62.75392	1458.65304	-743.3970399999998	95.74884	1442.87789	-748.3664999999999	-48.7123	1607.67916	-740.7967399999999	21.38025	1849.10262	-739.5832599999999	29.759	1751.85138	-674.8068899999998	9.3033	1756.5897	-810.4847899999999	-33.74612	1755.08731	-734.6137999999999	-27.56319	1590.97945	-554.2107199999999	-43.74283	1571.79501	-937.3794599999999	25.02067	1452.81681	-280.0234799999999	67.43446	1408.6117	-307.29773999999986	40.27577	1471.13448	-1210.75772	97.54016	1446.40274	-1186.19933	79.04914	1373.18983	-43.56947999999991	78.47129	1425.60033	-31.60809999999991	44.66739	1406.58925	-299.4968399999999	122.09856	1417.04823	-1448.13627	101.52729	1465.1249	-1460.38658	76.67997	1435.88597	-1192.38227	114.00873	1397.74822	183.5812200000001	107.53687	1351.92515	89.04585000000009	101.75843	1377.58145	6.760780000000084	214.20698	1452.70124	-1652.92439	198.1429	1411.38536	-1557.46446	154.2845	1432.4189	-1486.10066	-40.39134	975.40163	-568.8879799999999	-83.84525	543.11611	-592.05954	-84.82758	541.15144	-676.2515	-37.27097	540.63138	-637.47813	-39.00451	973.6681	-920.0441199999999	-90.08597	542.0182	-900.0507	-94.82429	539.93796	-816.0321	-45.59194	538.78227	-852.66744	-27.79432	500.58675000000005	-636.55358	-122.6764	95.17100000000005	-592.00176	-123.4276	93.49525000000004	-658.28053	-35.59523	499.8933400000001	-853.12972	-123.13868	93.49525000000006	-903.11327	-126.95245	91.58836000000005	-836.95007	-168.44169	6.009580000000038	-621.12513	4.16048	4.115016720200785E-14	-672.03323	8.95659	1.386830000000036	-587.55236	30.45241	-0.05777999999996128	-632.27753	-125.85455	6.9919200000000385	-623.55207	121.05844	-0.462279999999961	-637.36256	-168.49948	3.2359300000000535	-866.76685	5.48952	4.27605000000005	-820.53929	7.91647	5.5420040722317406E-14	-905.07795	30.68355	2.0802400000000527	-860.98841	-125.91233	5.258390000000054	-865.61116	121.34736	1.0979000000000527	-858.33032	
41	0.667	-41.20032	1006.83637	-744.4949399999999	32.87936	1114.95109	-599.2248199999999	30.39462	1112.06187	-893.1165599999999	-15.02396	1187.12388	-626.1523699999999	-17.1042	1184.75472	-866.7668499999999	-101.18058	946.45162	-683.2434199999999	-102.2207	945.23814	-803.5506599999999	-113.25754	1030.12351	-744.0904499999999	-72.92398	1128.06816	-745.0727899999999	-61.13596	1244.6772	-745.1305699999999	-61.88715	1351.7518	-744.4949399999999	100.83388	1570.29261	-747.0374599999999	-55.12637	1551.7438	-742.5302699999999	-62.75392	1458.71083	-743.4548199999999	95.69106	1442.87789	-748.3664999999999	-48.7123	1607.73694	-740.7967399999999	21.43803	1849.10262	-739.5832599999999	29.81678	1751.85138	-674.8068899999998	9.41887	1756.5897	-810.4847899999999	-33.68834	1755.08731	-734.6137999999999	-27.5054	1590.97945	-554.2107199999999	-43.68505	1571.79501	-937.4372399999999	25.13624	1452.81681	-280.0812599999999	67.49225	1408.6117	-307.3555299999999	40.33355	1471.13448	-1210.75772	97.59795	1446.40274	-1186.19933	79.22249	1373.18983	-43.627259999999914	78.70243	1425.54255	-31.665879999999913	44.72517	1406.58925	-299.5546199999999	122.32969	1417.10602	-1448.07849	101.81621	1465.24047	-1460.32879	76.73776	1435.88597	-1192.38227	114.41322	1397.57487	183.52343000000008	107.8258	1351.86737	88.93028000000008	101.98957	1377.52366	6.703000000000085	214.4959	1452.8746	-1652.8666	198.37404	1411.50093	-1557.40668	154.51564	1432.53447	-1486.10066	-40.44912	975.45941	-568.9457599999998	-83.90303	543.11611	-592.11733	-84.88537	541.15144	-676.2515	-37.32876	540.68916	-637.47813	-39.06229	973.6681	-920.1018999999999	-90.14375	542.0182	-900.10848	-94.88208	539.93796	-816.08988	-45.64972	538.78227	-852.66744	-27.85211	500.58675000000005	-636.55358	-122.6764	95.17100000000005	-592.00176	-123.4276	93.49525000000004	-658.28053	-35.59523	499.95112000000006	-853.1875	-123.13868	93.49525000000006	-903.11327	-126.95245	91.58836000000005	-836.95007	-168.44169	6.009580000000038	-621.12513	4.16048	0.057780000000041146	-672.03323	8.95659	1.386830000000036	-587.55236	30.45241	-0.05777999999996128	-632.27753	-125.85455	7.049700000000038	-623.55207	121.05844	-0.462279999999961	-637.36256	-168.49948	3.2359300000000535	-866.76685	5.48952	4.3338300000000505	-820.53929	7.91647	5.5420040722317406E-14	-905.07795	30.68355	2.0802400000000527	-860.98841	-125.91233	5.316170000000053	-865.61116	121.34736	1.0979000000000527	-858.33032	
